<svg width="300" height="300" viewBox="0 0 300 300" xmlns="http://www.w3.org/2000/svg">
  <defs>
    <pattern id="afghanCarpet" x="0" y="0" width="300" height="300" patternUnits="userSpaceOnUse">
      <!-- Base layer -->
      <rect width="300" height="300" fill="#111827" />
      
      <!-- Main border -->
      <rect x="10" y="10" width="280" height="280" fill="none" stroke="#8b0000" stroke-width="4" opacity="0.4" />
      
      <!-- Inner geometric pattern -->
      <rect x="30" y="30" width="240" height="240" fill="none" stroke="#a52a2a" stroke-width="2" opacity="0.3" />
      
      <!-- Center medallion -->
      <circle cx="150" cy="150" r="60" fill="none" stroke="#a52a2a" stroke-width="3" opacity="0.3" />
      <circle cx="150" cy="150" r="40" fill="none" stroke="#8b0000" stroke-width="2" opacity="0.3" />
      
      <!-- Geometric elements -->
      <polygon points="150,70 170,110 210,110 180,140 190,180 150,160 110,180 120,140 90,110 130,110" fill="none" stroke="#b8860b" stroke-width="1.5" opacity="0.25" />
      
      <!-- Corner elements -->
      <rect x="30" y="30" width="40" height="40" fill="none" stroke="#b8860b" stroke-width="1.5" opacity="0.25" />
      <rect x="230" y="30" width="40" height="40" fill="none" stroke="#b8860b" stroke-width="1.5" opacity="0.25" />
      <rect x="30" y="230" width="40" height="40" fill="none" stroke="#b8860b" stroke-width="1.5" opacity="0.25" />
      <rect x="230" y="230" width="40" height="40" fill="none" stroke="#b8860b" stroke-width="1.5" opacity="0.25" />
      
      <!-- Diamond patterns -->
      <path d="M50,150 L75,125 L100,150 L75,175 Z" fill="none" stroke="#8b0000" stroke-width="1.5" opacity="0.2" />
      <path d="M200,150 L225,125 L250,150 L225,175 Z" fill="none" stroke="#8b0000" stroke-width="1.5" opacity="0.2" />
      <path d="M150,50 L175,25 L200,50 L175,75 Z" fill="none" stroke="#8b0000" stroke-width="1.5" opacity="0.2" />
      <path d="M150,200 L175,175 L200,200 L175,225 Z" fill="none" stroke="#8b0000" stroke-width="1.5" opacity="0.2" />
      
      <!-- Small accents -->
      <circle cx="50" cy="50" r="5" fill="#b8860b" opacity="0.2" />
      <circle cx="250" cy="50" r="5" fill="#b8860b" opacity="0.2" />
      <circle cx="50" cy="250" r="5" fill="#b8860b" opacity="0.2" />
      <circle cx="250" cy="250" r="5" fill="#b8860b" opacity="0.2" />
      
      <!-- Intricate details -->
      <path d="M150,90 L160,100 L150,110 L140,100 Z" fill="none" stroke="#b8860b" stroke-width="1" opacity="0.15" />
      <path d="M150,190 L160,200 L150,210 L140,200 Z" fill="none" stroke="#b8860b" stroke-width="1" opacity="0.15" />
      <path d="M90,150 L100,160 L90,170 L80,160 Z" fill="none" stroke="#b8860b" stroke-width="1" opacity="0.15" />
      <path d="M210,150 L220,160 L210,170 L200,160 Z" fill="none" stroke="#b8860b" stroke-width="1" opacity="0.15" />
    </pattern>
  </defs>
  <rect width="300" height="300" fill="url(#afghanCarpet)" />
</svg>